# xmcd
#
# Track frame offsets: 
#        150
#        16257
#        38300
#        66257
#        95054
#        115676
#        135106
#        159376
#        179441
#        208129
#        234298
#        256387
#        281226
#        309890
#        337174
#
# Disc length: 4794 seconds
#
# Revision: 0
# Processed by: cddbd v1.5.2PL0 Copyright (c) Steve Scherf et al.
# Submitted via: ExactAudioCopy v0.99pb5
#
DISCID=c812b80f
DTITLE=Big Gilson - Blues Classics Live
DYEAR=2010
DGENRE=Blues
TTITLE0=Tribute to Roy Buchanan
TTITLE1=Cab Driver Blues
TTITLE2=Ghreen's Boogie
TTITLE3=Blue and Lonesome
TTITLE4=I Got to go
TTITLE5=The Messiah will come again
TTITLE6=Shake your Moneymaker
TTITLE7=Judgment Day
TTITLE8=Hey Doc
TTITLE9=Drivin' Wheel
TTITLE10=Hey now Baby
TTITLE11=Everyday I have the Blues
TTITLE12=Sweet Home Chicago
TTITLE13=It hurts me too
TTITLE14=I just wanna make Love to you
EXTD=
EXTT0=
EXTT1=
EXTT2=
EXTT3=
EXTT4=
EXTT5=
EXTT6=
EXTT7=
EXTT8=
EXTT9=
EXTT10=
EXTT11=
EXTT12=
EXTT13=
EXTT14=
PLAYORDER=
